<svg width="12" height="12" viewBox="0 0 12 12" fill="none" xmlns="http://www.w3.org/2000/svg">
<path fill-rule="evenodd" clip-rule="evenodd" d="M6.00022 0C6.37899 0 6.72525 0.214002 6.89465 0.552786L11.8946 10.5528C12.1416 11.0468 11.9414 11.6474 11.4474 11.8944C10.9535 12.1414 10.3528 11.9412 10.1058 11.4472L6.00022 3.23607L1.89465 11.4472C1.64766 11.9412 1.04698 12.1414 0.553005 11.8944C0.059027 11.6474 -0.141197 11.0468 0.105792 10.5528L5.10579 0.552786C5.27518 0.214002 5.62145 0 6.00022 0Z" fill="black"/>
<path fill-rule="evenodd" clip-rule="evenodd" d="M2 7C2 6.44772 2.44772 6 3 6H9C9.55228 6 10 6.44772 10 7C10 7.55228 9.55228 8 9 8H3C2.44772 8 2 7.55228 2 7Z" fill="black"/>
</svg>
