<svg width="1030" height="725" viewBox="0 0 1030 725" fill="none" xmlns="http://www.w3.org/2000/svg">
<path d="M511.84 459.69C576.386 459.69 628.711 404.457 628.711 336.323C628.711 268.189 576.386 212.956 511.84 212.956C447.294 212.956 394.97 268.189 394.97 336.323C394.97 404.457 447.294 459.69 511.84 459.69Z" stroke="#9DA7C1" stroke-width="2" stroke-miterlimit="10"/>
<path d="M511.84 512.458C603.995 512.458 678.7 433.6 678.7 336.323C678.7 239.047 603.995 160.188 511.84 160.188C419.686 160.188 344.98 239.047 344.98 336.323C344.98 433.6 419.686 512.458 511.84 512.458Z" stroke="#9DA7C1" stroke-width="2" stroke-miterlimit="10"/>
<path d="M511.84 572.039C635.168 572.039 735.144 466.505 735.144 336.323C735.144 206.14 635.168 100.606 511.84 100.606C388.513 100.606 288.536 206.14 288.536 336.323C288.536 466.505 388.513 572.039 511.84 572.039Z" stroke="#9DA7C1" stroke-width="2" stroke-miterlimit="10"/>
<path d="M511.84 653.946C678.021 653.946 812.737 511.741 812.737 336.323C812.737 160.905 678.021 18.7002 511.84 18.7002C345.659 18.7002 210.942 160.905 210.942 336.323C210.942 511.741 345.659 653.946 511.84 653.946Z" stroke="#9DA7C1" stroke-width="2" stroke-miterlimit="10"/>
<path d="M511.841 764.846C736.045 764.846 917.798 572.99 917.798 336.323C917.798 99.6568 736.045 -92.1992 511.841 -92.1992C287.637 -92.1992 105.884 99.6568 105.884 336.323C105.884 572.99 287.637 764.846 511.841 764.846Z" stroke="#9DA7C1" stroke-width="2" stroke-miterlimit="10"/>
<path d="M511.84 903.579C808.63 903.579 1049.23 649.61 1049.23 336.323C1049.23 23.0364 808.63 -230.933 511.84 -230.933C215.051 -230.933 -25.5449 23.0364 -25.5449 336.323C-25.5449 649.61 215.051 903.579 511.84 903.579Z" stroke="#9DA7C1" stroke-width="2" stroke-miterlimit="10"/>
</svg>
