<svg width="15" height="11" viewBox="0 0 15 11" fill="none" xmlns="http://www.w3.org/2000/svg">
<path d="M14.909 0V1.87H9.367V2.89L9.401 3.587V10.574H7.157C6.73767 9.962 6.22767 9.42367 5.627 8.959C5.03767 8.49434 4.38033 8.109 3.655 7.803C2.92967 7.48567 2.142 7.259 1.292 7.123L0.442 5.117C1.48467 4.539 2.62367 3.98367 3.859 3.451C5.10567 2.907 6.32967 2.47633 7.531 2.159L7.208 2.652V1.87H0V0H14.909ZM7.157 3.791L7.514 4.165C7.01533 4.31233 6.53367 4.471 6.069 4.641C5.61567 4.811 5.16233 4.998 4.709 5.202C4.25567 5.39467 3.78533 5.61 3.298 5.848C3.76267 5.93867 4.24433 6.09733 4.743 6.324C5.253 6.53933 5.746 6.82267 6.222 7.174C6.70933 7.52533 7.14567 7.93333 7.531 8.398L7.225 8.585C7.21367 8.381 7.19667 8.15433 7.174 7.905C7.16267 7.65567 7.157 7.38933 7.157 7.106V3.791ZM14.195 6.188C14.195 6.562 14.1157 6.919 13.957 7.259C13.8097 7.599 13.549 7.87667 13.175 8.092C12.801 8.30733 12.2797 8.415 11.611 8.415C11.373 8.415 11.152 8.40933 10.948 8.398C10.7553 8.37533 10.574 8.347 10.404 8.313L10.472 6.443C10.5287 6.45433 10.5967 6.46567 10.676 6.477C10.7667 6.477 10.88 6.477 11.016 6.477C11.424 6.477 11.6903 6.409 11.815 6.273C11.9397 6.12567 12.002 5.95 12.002 5.746C12.002 5.36067 11.7583 5.02067 11.271 4.726C10.7837 4.43133 10.0697 4.20467 9.129 4.046V2.193C10.0583 2.31767 10.9027 2.55567 11.662 2.907C12.4327 3.247 13.0447 3.69467 13.498 4.25C13.9627 4.794 14.195 5.44 14.195 6.188Z" fill="black"/>
</svg>
