<svg width="24" height="24" viewBox="0 0 24 24" fill="none" xmlns="http://www.w3.org/2000/svg">
<g id="Icon/control_FILL0_wght400_GRAD0_opsz48 1" opacity="0.5">
<path id="Vector" d="M6.24748 21C5.34916 21 4.58333 20.6825 3.95 20.0475C3.31667 19.4125 3 18.6458 3 17.7475C3 16.8492 3.31726 16.0833 3.95178 15.45C4.58631 14.8167 5.35238 14.5 6.25 14.5H8V9.5H6.25C5.35238 9.5 4.58631 9.18249 3.95178 8.54747C3.31726 7.91246 3 7.14579 3 6.24747C3 5.34916 3.31751 4.58333 3.95252 3.95C4.58754 3.31667 5.35421 3 6.25253 3C7.15084 3 7.91667 3.31726 8.55 3.95177C9.18333 4.58631 9.5 5.35238 9.5 6.25V8H14.5V6.25C14.5 5.35238 14.8175 4.58631 15.4525 3.95177C16.0875 3.31726 16.8542 3 17.7525 3C18.6508 3 19.4167 3.31751 20.05 3.95253C20.6833 4.58754 21 5.35421 21 6.25253C21 7.15084 20.6827 7.91667 20.0482 8.55C19.4137 9.18333 18.6476 9.5 17.75 9.5H16V14.5H17.75C18.6476 14.5 19.4137 14.8175 20.0482 15.4525C20.6827 16.0875 21 16.8542 21 17.7525C21 18.6508 20.6825 19.4167 20.0475 20.05C19.4125 20.6833 18.6458 21 17.7475 21C16.8492 21 16.0833 20.6827 15.45 20.0482C14.8167 19.4137 14.5 18.6476 14.5 17.75V16H9.5V17.75C9.5 18.6476 9.18249 19.4137 8.54747 20.0482C7.91246 20.6827 7.14579 21 6.24748 21ZM6.24705 19.5C6.73235 19.5 7.14583 19.3299 7.4875 18.9896C7.82917 18.6493 8 18.2361 8 17.75V16H6.25C5.76388 16 5.35069 16.1698 5.01043 16.5095C4.67014 16.8493 4.5 17.2618 4.5 17.7471C4.5 18.2324 4.66985 18.6458 5.00955 18.9875C5.34927 19.3292 5.76177 19.5 6.24705 19.5ZM17.7471 19.5C18.2324 19.5 18.6458 19.3302 18.9875 18.9904C19.3292 18.6507 19.5 18.2382 19.5 17.7529C19.5 17.2676 19.3299 16.8542 18.9896 16.5125C18.6493 16.1708 18.2361 16 17.75 16H16V17.75C16 18.2361 16.1699 18.6493 16.5096 18.9896C16.8493 19.3299 17.2618 19.5 17.7471 19.5ZM9.5 14.5H14.5V9.5H9.5V14.5ZM6.25 8H8V6.25C8 5.76388 7.83015 5.35069 7.49045 5.01042C7.15073 4.67014 6.73823 4.5 6.25295 4.5C5.76765 4.5 5.35417 4.66985 5.0125 5.00955C4.67083 5.34927 4.5 5.76177 4.5 6.24705C4.5 6.73235 4.67014 7.14583 5.01043 7.4875C5.35069 7.82917 5.76388 8 6.25 8ZM16 8H17.75C18.2361 8 18.6493 7.83015 18.9896 7.49045C19.3299 7.15073 19.5 6.73823 19.5 6.25295C19.5 5.76765 19.3302 5.35417 18.9904 5.0125C18.6507 4.67083 18.2382 4.5 17.7529 4.5C17.2676 4.5 16.8542 4.67014 16.5125 5.01042C16.1708 5.35069 16 5.76388 16 6.25V8Z" fill="black" stroke="black" stroke-width="0.4"/>
</g>
</svg>
