<svg width="24" height="24" viewBox="0 0 24 24" fill="none" xmlns="http://www.w3.org/2000/svg">
<g id="Icon/languages" opacity="0.7">
<g id="Group 9000">
<path id="Vector (Stroke)" fill-rule="evenodd" clip-rule="evenodd" d="M17.0002 11C17.379 11 17.7253 11.214 17.8946 11.5528L22.8946 21.5528C23.1416 22.0468 22.9414 22.6474 22.4474 22.8944C21.9535 23.1414 21.3528 22.9412 21.1058 22.4472L17.0002 14.2361L12.8946 22.4472C12.6477 22.9412 12.047 23.1414 11.553 22.8944C11.059 22.6474 10.8588 22.0468 11.1058 21.5528L16.1058 11.5528C16.2752 11.214 16.6214 11 17.0002 11Z" fill="black"/>
<path id="Vector (Stroke)_2" fill-rule="evenodd" clip-rule="evenodd" d="M13 18C13 17.4477 13.4477 17 14 17H20C20.5523 17 21 17.4477 21 18C21 18.5523 20.5523 19 20 19H14C13.4477 19 13 18.5523 13 18Z" fill="black"/>
</g>
<path id="&#224;&#166;&#149;" d="M15.909 1V2.87H10.367V3.89L10.401 4.587V11.574H8.157C7.73767 10.962 7.22767 10.4237 6.627 9.959C6.03767 9.49434 5.38033 9.109 4.655 8.803C3.92967 8.48567 3.142 8.259 2.292 8.123L1.442 6.117C2.48467 5.539 3.62367 4.98367 4.859 4.451C6.10567 3.907 7.32967 3.47633 8.531 3.159L8.208 3.652V2.87H1V1H15.909ZM8.157 4.791L8.514 5.165C8.01533 5.31233 7.53367 5.471 7.069 5.641C6.61567 5.811 6.16233 5.998 5.709 6.202C5.25567 6.39467 4.78533 6.61 4.298 6.848C4.76267 6.93867 5.24433 7.09733 5.743 7.324C6.253 7.53933 6.746 7.82267 7.222 8.174C7.70933 8.52533 8.14567 8.93333 8.531 9.398L8.225 9.585C8.21367 9.381 8.19667 9.15433 8.174 8.905C8.16267 8.65567 8.157 8.38933 8.157 8.106V4.791ZM15.195 7.188C15.195 7.562 15.1157 7.919 14.957 8.259C14.8097 8.599 14.549 8.87667 14.175 9.092C13.801 9.30733 13.2797 9.415 12.611 9.415C12.373 9.415 12.152 9.40933 11.948 9.398C11.7553 9.37533 11.574 9.347 11.404 9.313L11.472 7.443C11.5287 7.45433 11.5967 7.46567 11.676 7.477C11.7667 7.477 11.88 7.477 12.016 7.477C12.424 7.477 12.6903 7.409 12.815 7.273C12.9397 7.12567 13.002 6.95 13.002 6.746C13.002 6.36067 12.7583 6.02067 12.271 5.726C11.7837 5.43133 11.0697 5.20467 10.129 5.046V3.193C11.0583 3.31767 11.9027 3.55567 12.662 3.907C13.4327 4.247 14.0447 4.69467 14.498 5.25C14.9627 5.794 15.195 6.44 15.195 7.188Z" fill="black"/>
</g>
</svg>
