<svg width="24" height="24" viewBox="0 0 24 24" fill="none" xmlns="http://www.w3.org/2000/svg">
<g opacity="0.7">
<g clip-path="url(#clip0_379_7073)">
<path d="M20.5625 15.0156C20.0781 14.7812 19.4922 14.9883 19.2578 15.4727C18.6094 16.8203 17.6016 17.9609 16.3398 18.7734C15.0469 19.6055 13.5469 20.0469 12 20.0469C7.5625 20.0469 3.95312 16.4375 3.95312 12C3.95312 7.5625 7.5625 3.95312 12 3.95312C13.5469 3.95312 15.0469 4.39453 16.3438 5.22266C17.6055 6.03125 18.6133 7.17578 19.2617 8.52344C19.4961 9.00781 20.0781 9.21484 20.5664 8.98047C21.0508 8.74609 21.2578 8.16406 21.0234 7.67578C20.2188 6 18.9688 4.58203 17.3984 3.57812C15.7891 2.54688 13.9219 2 12 2C9.32812 2 6.81641 3.03906 4.92969 4.92969C3.03906 6.81641 2 9.32812 2 12C2 14.6719 3.03906 17.1836 4.92969 19.0703C6.82031 20.9609 9.32812 22 12 22C13.9219 22 15.7891 21.4531 17.3984 20.418C18.9648 19.4102 20.2188 17.9922 21.0234 16.3203C21.2539 15.832 21.0508 15.25 20.5625 15.0156Z" fill="#EC1F26"/>
<path d="M12.5195 15.8008C12.7109 15.9922 12.9609 16.0859 13.2109 16.0859C13.4609 16.0859 13.7109 15.9922 13.9023 15.8008L16.3594 13.3438C16.7187 12.9844 16.9141 12.5078 16.9141 12.0039C16.9141 11.5 16.7148 11.0195 16.3594 10.6641L13.9023 8.20703C13.5195 7.82422 12.9023 7.82422 12.5195 8.20703C12.1367 8.58984 12.1367 9.20703 12.5195 9.58984L13.9609 11.0313H8.41016C7.87109 11.0313 7.43359 11.4688 7.43359 12.0078C7.43359 12.5469 7.87109 12.9844 8.41016 12.9844H13.9648L12.5234 14.4258C12.1406 14.8008 12.1406 15.418 12.5195 15.8008Z" fill="#EC1F26"/>
</g>
</g>
<defs>
<clipPath id="clip0_379_7073">
<rect width="20" height="20" fill="white" transform="translate(2 2)"/>
</clipPath>
</defs>
</svg>
