<svg width="25" height="24" viewBox="0 0 25 24" fill="none" xmlns="http://www.w3.org/2000/svg">
<g id="Icon/more-vertical" opacity="0.7">
<path id="Vector" d="M12.8797 13C13.4335 13 13.8824 12.5523 13.8824 12C13.8824 11.4477 13.4335 11 12.8797 11C12.3259 11 11.877 11.4477 11.877 12C11.877 12.5523 12.3259 13 12.8797 13Z" stroke="black" stroke-width="2" stroke-linecap="round" stroke-linejoin="round"/>
<path id="Vector_2" d="M12.8797 6C13.4335 6 13.8824 5.55228 13.8824 5C13.8824 4.44772 13.4335 4 12.8797 4C12.3259 4 11.877 4.44772 11.877 5C11.877 5.55228 12.3259 6 12.8797 6Z" stroke="black" stroke-width="2" stroke-linecap="round" stroke-linejoin="round"/>
<path id="Vector_3" d="M12.8797 20C13.4335 20 13.8824 19.5523 13.8824 19C13.8824 18.4477 13.4335 18 12.8797 18C12.3259 18 11.877 18.4477 11.877 19C11.877 19.5523 12.3259 20 12.8797 20Z" stroke="black" stroke-width="2" stroke-linecap="round" stroke-linejoin="round"/>
</g>
</svg>
